<svg width="738" height="477" viewBox="0 0 738 477" fill="none" xmlns="http://www.w3.org/2000/svg">
<g filter="url(#filter0_d_310_13625)">
<rect x="23" y="20" width="691" height="445" rx="24" fill="white" shape-rendering="crispEdges"/>
<rect x="23.5" y="20.5" width="690" height="444" rx="23.5" stroke="white" shape-rendering="crispEdges"/>
<g filter="url(#filter1_d_310_13625)">
<path d="M24 44C24 30.7452 34.7452 20 48 20H690C703.255 20 714 30.7452 714 44V159H24V44Z" fill="white" shape-rendering="crispEdges"/>
<circle cx="54" cy="48" r="12" fill="#D9D9D9"/>
<circle cx="86" cy="48" r="12" fill="#D9D9D9"/>
<circle cx="118" cy="48" r="12" fill="#D9D9D9"/>
<circle cx="74" cy="108" r="32" fill="#EBAA28"/>
<rect x="122" y="96" width="145" height="24" rx="12" fill="#D9D9D9"/>
</g>
<circle cx="72" cy="207" r="32" fill="#F4F4F4"/>
<rect x="112" y="175" width="75" height="16" rx="8" fill="#D9D9D9"/>
<rect x="112" y="199" width="226" height="112" rx="16" fill="#EFEFEF"/>
<rect x="124" y="211" width="75" height="11" rx="5.5" fill="#D9D9D9"/>
<rect x="124" y="230" width="178" height="11" rx="5.5" fill="#D9D9D9"/>
<rect x="124" y="249" width="118" height="11" rx="5.5" fill="#D9D9D9"/>
<rect x="124" y="268" width="148" height="11" rx="5.5" fill="#D9D9D9"/>
<rect x="124" y="287" width="81" height="11" rx="5.5" fill="#D9D9D9"/>
<rect x="463" y="330" width="235" height="119" rx="16" fill="#A1FA85"/>
<rect x="479" y="346" width="75" height="11" rx="5.5" fill="#636363"/>
<rect x="479" y="365" width="171" height="11" rx="5.5" fill="#636363"/>
<rect x="479" y="384" width="118" height="11" rx="5.5" fill="#636363"/>
<rect x="479" y="403" width="171" height="11" rx="5.5" fill="#636363"/>
<rect x="479" y="422" width="81" height="11" rx="5.5" fill="#636363"/>
</g>
<defs>
<filter id="filter0_d_310_13625" x="23" y="20" width="699" height="457" filterUnits="userSpaceOnUse" color-interpolation-filters="sRGB">
<feFlood flood-opacity="0" result="BackgroundImageFix"/>
<feColorMatrix in="SourceAlpha" type="matrix" values="0 0 0 0 0 0 0 0 0 0 0 0 0 0 0 0 0 0 127 0" result="hardAlpha"/>
<feOffset dx="8" dy="12"/>
<feComposite in2="hardAlpha" operator="out"/>
<feColorMatrix type="matrix" values="0 0 0 0 0 0 0 0 0 0 0 0 0 0 0 0 0 0 0.12 0"/>
<feBlend mode="normal" in2="BackgroundImageFix" result="effect1_dropShadow_310_13625"/>
<feBlend mode="normal" in="SourceGraphic" in2="effect1_dropShadow_310_13625" result="shape"/>
</filter>
<filter id="filter1_d_310_13625" x="0" y="0" width="738" height="187" filterUnits="userSpaceOnUse" color-interpolation-filters="sRGB">
<feFlood flood-opacity="0" result="BackgroundImageFix"/>
<feColorMatrix in="SourceAlpha" type="matrix" values="0 0 0 0 0 0 0 0 0 0 0 0 0 0 0 0 0 0 127 0" result="hardAlpha"/>
<feOffset dy="4"/>
<feGaussianBlur stdDeviation="12"/>
<feComposite in2="hardAlpha" operator="out"/>
<feColorMatrix type="matrix" values="0 0 0 0 0 0 0 0 0 0 0 0 0 0 0 0 0 0 0.05 0"/>
<feBlend mode="normal" in2="BackgroundImageFix" result="effect1_dropShadow_310_13625"/>
<feBlend mode="normal" in="SourceGraphic" in2="effect1_dropShadow_310_13625" result="shape"/>
</filter>
</defs>
</svg>
