<svg width="256" height="256" viewBox="0 0 256 256" fill="none" xmlns="http://www.w3.org/2000/svg">
<g clip-path="url(#clip0_260_11243)">
<path opacity="0.8" d="M224.288 43.9158L212.325 128.116L128.125 116.153L140.088 31.9529L224.288 43.9158Z" fill="#A295AE"/>
<path opacity="0.8" d="M31.8853 212.291L43.8482 128.091L128.048 140.054L116.085 224.254L31.8853 212.291Z" fill="#5D6F6D"/>
<path opacity="0.8" d="M43.8483 32.0647L128.048 44.0276L116.085 128.227L31.8854 116.265L43.8483 32.0647Z" fill="#8CD592"/>
<path opacity="0.8" d="M212.226 224.264L128.026 212.301L139.989 128.101L224.189 140.064L212.226 224.264Z" fill="#665E74"/>
<path opacity="0.8" d="M119.642 255.595L68.5629 187.598L136.56 136.519L187.64 204.516L119.642 255.595Z" fill="#3C3647"/>
<path opacity="0.8" d="M255.463 136.39L187.466 187.469L136.387 119.472L204.384 68.3923L255.463 136.39Z" fill="#837193"/>
<path opacity="0.8" d="M136.437 0.553955L187.516 68.5513L119.519 119.631L68.4393 51.6332L136.437 0.553955Z" fill="#A2F4AC"/>
<path opacity="0.8" d="M0.46331 119.7L68.4607 68.6211L119.54 136.618L51.5426 187.698L0.46331 119.7Z" fill="#7EA685"/>
<path d="M127.963 95.7424L160.295 128.075L127.963 160.407L95.6311 128.075L127.963 95.7424Z" fill="#3C3647"/>
</g>
<defs>
<clipPath id="clip0_260_11243">
<rect width="256" height="256" fill="white"/>
</clipPath>
</defs>
</svg>
